<svg width="22" height="22" viewBox="0 0 22 22" fill="#877778" xmlns="http://www.w3.org/2000/svg">
<path d="M19.9375 8.9375C19.9361 7.66156 19.4287 6.43828 18.5264 5.53606C17.6242 4.63383 16.4009 4.12636 15.125 4.125H11.6875C11.6875 3.57799 11.9048 3.05339 12.2916 2.66659C12.6784 2.2798 13.203 2.0625 13.75 2.0625C13.9323 2.0625 14.1072 1.99007 14.2361 1.86114C14.3651 1.7322 14.4375 1.55734 14.4375 1.375C14.4375 1.19266 14.3651 1.0178 14.2361 0.888864C14.1072 0.759933 13.9323 0.6875 13.75 0.6875C12.8383 0.6875 11.964 1.04966 11.3193 1.69432C10.6747 2.33898 10.3125 3.21332 10.3125 4.125H6.875C5.59906 4.12636 4.37578 4.63383 3.47356 5.53606C2.57133 6.43828 2.06386 7.66156 2.0625 8.9375C2.06275 9.17862 2.1264 9.41544 2.24707 9.6242C2.36774 9.83296 2.54118 10.0063 2.75 10.1269V11C2.75 14.0534 5.59625 16.3384 7.88391 18.1749C8.90828 18.9982 10.3125 20.1248 10.3125 20.625C10.3125 20.8073 10.3849 20.9822 10.5139 21.1111C10.6428 21.2401 10.8177 21.3125 11 21.3125C11.1823 21.3125 11.3572 21.2401 11.4861 21.1111C11.6151 20.9822 11.6875 20.8073 11.6875 20.625C11.6875 20.1248 13.0917 18.9982 14.1161 18.1749C16.4037 16.3384 19.25 14.0534 19.25 11V10.1269C19.4588 10.0063 19.6323 9.83296 19.7529 9.6242C19.8736 9.41544 19.9373 9.17862 19.9375 8.9375ZM13.2559 17.1016C12.3432 17.8337 11.5371 18.4766 11 19.1099C10.4629 18.4809 9.6568 17.8337 8.74414 17.1016C6.68594 15.4507 4.125 13.3942 4.125 11V10.3125H17.875V11C17.875 13.3942 15.3141 15.4507 13.2559 17.1016Z" />
</svg>
