<svg width="20" height="20" viewBox="0 0 20 20" fill="#FFBF75" xmlns="http://www.w3.org/2000/svg">
<path d="M16.25 2.5H14.375V1.875C14.375 1.70924 14.3092 1.55027 14.1919 1.43306C14.0747 1.31585 13.9158 1.25 13.75 1.25C13.5842 1.25 13.4253 1.31585 13.3081 1.43306C13.1908 1.55027 13.125 1.70924 13.125 1.875V2.5H6.875V1.875C6.875 1.70924 6.80915 1.55027 6.69194 1.43306C6.57473 1.31585 6.41576 1.25 6.25 1.25C6.08424 1.25 5.92527 1.31585 5.80806 1.43306C5.69085 1.55027 5.625 1.70924 5.625 1.875V2.5H3.75C3.41848 2.5 3.10054 2.6317 2.86612 2.86612C2.6317 3.10054 2.5 3.41848 2.5 3.75V16.25C2.5 16.5815 2.6317 16.8995 2.86612 17.1339C3.10054 17.3683 3.41848 17.5 3.75 17.5H16.25C16.5815 17.5 16.8995 17.3683 17.1339 17.1339C17.3683 16.8995 17.5 16.5815 17.5 16.25V3.75C17.5 3.41848 17.3683 3.10054 17.1339 2.86612C16.8995 2.6317 16.5815 2.5 16.25 2.5ZM16.25 16.25H3.75V3.75H5.625V4.375C5.625 4.54076 5.69085 4.69973 5.80806 4.81694C5.92527 4.93415 6.08424 5 6.25 5C6.41576 5 6.57473 4.93415 6.69194 4.81694C6.80915 4.69973 6.875 4.54076 6.875 4.375V3.75H13.125V4.375C13.125 4.54076 13.1908 4.69973 13.3081 4.81694C13.4253 4.93415 13.5842 5 13.75 5C13.9158 5 14.0747 4.93415 14.1919 4.81694C14.3092 4.69973 14.375 4.54076 14.375 4.375V3.75H16.25V16.25ZM11.875 6.875C11.5201 6.8748 11.1692 6.95039 10.8459 7.09671C10.5225 7.24302 10.2341 7.4567 10 7.72344C9.66423 7.34271 9.22052 7.07323 8.72787 6.95081C8.23523 6.8284 7.71698 6.85885 7.24207 7.03814C6.76715 7.21742 6.35806 7.53703 6.0692 7.95446C5.78035 8.37189 5.62541 8.86737 5.625 9.375C5.625 12.2281 9.55312 14.225 9.72031 14.3094C9.80714 14.3528 9.9029 14.3754 10 14.3754C10.0971 14.3754 10.1929 14.3528 10.2797 14.3094C10.4469 14.225 14.375 12.2281 14.375 9.375C14.375 8.71196 14.1116 8.07607 13.6428 7.60723C13.1739 7.13839 12.538 6.875 11.875 6.875ZM10 13.0414C8.92266 12.4328 6.875 10.9516 6.875 9.375C6.875 9.04348 7.0067 8.72554 7.24112 8.49112C7.47554 8.2567 7.79348 8.125 8.125 8.125C8.45652 8.125 8.77446 8.2567 9.00888 8.49112C9.2433 8.72554 9.375 9.04348 9.375 9.375C9.375 9.54076 9.44085 9.69973 9.55806 9.81694C9.67527 9.93415 9.83424 10 10 10C10.1658 10 10.3247 9.93415 10.4419 9.81694C10.5592 9.69973 10.625 9.54076 10.625 9.375C10.625 9.04348 10.7567 8.72554 10.9911 8.49112C11.2255 8.2567 11.5435 8.125 11.875 8.125C12.2065 8.125 12.5245 8.2567 12.7589 8.49112C12.9933 8.72554 13.125 9.04348 13.125 9.375C13.125 10.9523 11.0773 12.4336 10 13.0414Z" />
</svg>
