<svg width="22" height="22" viewBox="0 0 22 22" fill="#877778" xmlns="http://www.w3.org/2000/svg">
<g clip-path="url(#clip0_41_58)">
<path d="M11.3438 2.0625C9.06531 2.065 6.88091 2.97122 5.26981 4.58231C3.65872 6.19341 2.7525 8.37781 2.75 10.6562V17.875C2.75 18.2397 2.89487 18.5894 3.15273 18.8473C3.41059 19.1051 3.76033 19.25 4.125 19.25H11.3438C13.623 19.25 15.8088 18.3446 17.4204 16.7329C19.0321 15.1213 19.9375 12.9355 19.9375 10.6562C19.9375 8.37705 19.0321 6.19119 17.4204 4.57955C15.8088 2.96791 13.623 2.0625 11.3438 2.0625ZM7.5625 12.0312C7.35854 12.0313 7.15916 11.9708 6.98957 11.8575C6.81998 11.7441 6.6878 11.5831 6.60975 11.3946C6.5317 11.2062 6.51127 10.9989 6.55107 10.7988C6.59086 10.5988 6.68907 10.415 6.8333 10.2708C6.97752 10.1266 7.16127 10.0284 7.36131 9.98857C7.56136 9.94877 7.76871 9.9692 7.95714 10.0472C8.14558 10.1253 8.30664 10.2575 8.41995 10.4271C8.53327 10.5967 8.59375 10.796 8.59375 11C8.59375 11.2735 8.4851 11.5358 8.2917 11.7292C8.09831 11.9226 7.836 12.0312 7.5625 12.0312ZM11.3438 12.0312C11.1398 12.0312 10.9404 11.9708 10.7708 11.8575C10.6012 11.7441 10.4691 11.5831 10.391 11.3946C10.3129 11.2062 10.2925 10.9989 10.3323 10.7988C10.3721 10.5988 10.4703 10.415 10.6145 10.2708C10.7588 10.1266 10.9425 10.0284 11.1426 9.98857C11.3426 9.94877 11.55 9.9692 11.7384 10.0472C11.9268 10.1253 12.0879 10.2575 12.2012 10.4271C12.3145 10.5967 12.375 10.796 12.375 11C12.375 11.2735 12.2664 11.5358 12.073 11.7292C11.8796 11.9226 11.6173 12.0312 11.3438 12.0312ZM15.125 12.0312C14.921 12.0312 14.7217 11.9708 14.5521 11.8575C14.3825 11.7441 14.2503 11.5831 14.1722 11.3946C14.0942 11.2062 14.0738 10.9989 14.1136 10.7988C14.1534 10.5988 14.2516 10.415 14.3958 10.2708C14.54 10.1266 14.7238 10.0284 14.9238 9.98857C15.1239 9.94877 15.3312 9.9692 15.5196 10.0472C15.7081 10.1253 15.8691 10.2575 15.9825 10.4271C16.0958 10.5967 16.1562 10.796 16.1562 11C16.1562 11.2735 16.0476 11.5358 15.8542 11.7292C15.6608 11.9226 15.3985 12.0312 15.125 12.0312Z"/>
</g>
<defs>
<clipPath id="clip0_41_58">
<rect width="22" height="22" fill="white"/>
</clipPath>
</defs>
</svg>
