<svg width="54" height="44" viewBox="0 0 54 44" fill="none" xmlns="http://www.w3.org/2000/svg">
<path d="M48.973 31.4619C47.2385 38.9746 39.6643 40.6365 28.836 39.5232C19.629 37.2546 8.93328 33.2271 10.1484 25.7339C11.8828 18.2212 20.6337 14.0578 34.3572 15.6084C44.097 17.857 50.7074 23.9492 48.973 31.4619Z" fill="#FF858C"/>
<path d="M15.6966 13.3801C15.249 15.3189 13.4639 16.5622 10.0506 15.7742C7.38003 15.1576 5.00905 12.9548 5.45664 11.016C5.90424 9.07729 9.00092 8.13677 11.6715 8.75333C14.3421 9.36988 15.9499 12.2831 15.6966 13.3801Z" fill="#FF858C"/>
<path d="M32.6777 9.90532C32.2301 11.8441 29.8296 12.9453 27.3161 12.365C24.8026 11.7848 22.559 9.61133 23.0066 7.67258C23.4542 5.73382 27.3275 4.74151 29.841 5.3218C32.3545 5.90208 33.1253 7.96657 32.6777 9.90532Z" fill="#FF858C"/>
<path d="M51.7965 14.0398C51.321 16.0998 51.1781 16.7186 46.0999 16.6533C44.0164 15.2963 41.9343 13.9327 42.4099 11.8728C42.8855 9.81286 44.4533 9.5104 47.8221 9.19365C50.4927 9.8102 52.2721 11.9799 51.7965 14.0398Z" fill="#FF858C"/>
</svg>
