<svg width="22" height="22" viewBox="0 0 22 22" fill="#877778" xmlns="http://www.w3.org/2000/svg">
<g clip-path="url(#clip0_41_61)">
<path d="M20.625 17.875H19.25V11.6875L19.4511 11.8886C19.5803 12.0176 19.7555 12.09 19.9381 12.0898C20.1207 12.0896 20.2958 12.0169 20.4248 11.8877C20.5538 11.7585 20.6262 11.5833 20.626 11.4007C20.6258 11.2181 20.5531 11.043 20.4239 10.914L11.972 2.46467C11.7141 2.207 11.3645 2.06226 11 2.06226C10.6355 2.06226 10.2859 2.207 10.028 2.46467L1.57609 10.914C1.4472 11.043 1.37484 11.218 1.37492 11.4003C1.375 11.5827 1.44752 11.7575 1.57652 11.8864C1.70553 12.0153 1.88045 12.0877 2.0628 12.0876C2.24516 12.0875 2.42002 12.015 2.54891 11.886L2.75 11.6875V17.875H1.375C1.19266 17.875 1.0178 17.9474 0.888864 18.0763C0.759933 18.2053 0.6875 18.3801 0.6875 18.5625C0.6875 18.7448 0.759933 18.9197 0.888864 19.0486C1.0178 19.1775 1.19266 19.25 1.375 19.25H20.625C20.8073 19.25 20.9822 19.1775 21.1111 19.0486C21.2401 18.9197 21.3125 18.7448 21.3125 18.5625C21.3125 18.3801 21.2401 18.2053 21.1111 18.0763C20.9822 17.9474 20.8073 17.875 20.625 17.875ZM13.0625 17.875H8.9375V13.75C8.9375 13.6588 8.97372 13.5714 9.03818 13.5069C9.10265 13.4424 9.19008 13.4062 9.28125 13.4062H12.7188C12.8099 13.4062 12.8974 13.4424 12.9618 13.5069C13.0263 13.5714 13.0625 13.6588 13.0625 13.75V17.875Z" />
</g>
<defs>
<clipPath id="clip0_41_61">
<rect width="22" height="22" fill="white"/>
</clipPath>
</defs>
</svg>
